<svg width="84" height="106" viewBox="0 0 84 106" fill="none" xmlns="http://www.w3.org/2000/svg">
<g clip-path="url(#clip0_1_1068)">
<path d="M42 38.4803L47.2083 50.7512C47.2083 52.1509 46.6596 53.4933 45.6828 54.4831C44.7061 55.4729 43.3813 56.0289 42 56.0289C40.6186 56.0289 39.2939 55.4729 38.3171 54.4831C37.3404 53.4933 36.7916 52.1509 36.7916 50.7512L42 38.4803ZM75.8541 5.38867H8.14579C7.45512 5.38867 6.79274 5.6667 6.30437 6.16158C5.81599 6.65647 5.54163 7.32768 5.54163 8.02756V15.9442C5.54163 16.6441 5.81599 17.3153 6.30437 17.8102C6.79274 18.3051 7.45512 18.5831 8.14579 18.5831H75.8541C76.5448 18.5831 77.2072 18.3051 77.6955 17.8102C78.1839 17.3153 78.4583 16.6441 78.4583 15.9442V8.02756C78.4583 7.32768 78.1839 6.65647 77.6955 6.16158C77.2072 5.6667 76.5448 5.38867 75.8541 5.38867ZM73.25 60.8053V21.222H42C48.216 21.222 54.1774 23.7242 58.5728 28.1782C62.9682 32.6322 65.4375 38.6731 65.4375 44.972V60.8053H73.25ZM42 26.4998C37.1653 26.4998 32.5286 28.446 29.11 31.9102C25.6914 35.3744 23.7708 40.0729 23.7708 44.972V60.8053H42C39.2373 60.8053 36.5878 59.6932 34.6343 57.7137C32.6808 55.7341 31.5833 53.0493 31.5833 50.2498C31.5872 49.8878 31.6578 49.5298 31.7916 49.1942L39.6041 30.722C39.8042 30.246 40.138 29.8401 40.564 29.5548C40.99 29.2695 41.4893 29.1173 42 29.1173C42.5106 29.1173 43.0099 29.2695 43.4359 29.5548C43.8619 29.8401 44.1957 30.246 44.3958 30.722L52.2083 49.1942C52.3421 49.5298 52.4127 49.8878 52.4166 50.2498C52.4166 53.0493 51.3192 55.7341 49.3657 57.7137C47.4121 59.6932 44.7626 60.8053 42 60.8053H60.2291V44.972C60.2291 40.0729 58.3086 35.3744 54.8899 31.9102C51.4713 28.446 46.8346 26.4998 42 26.4998ZM10.75 60.8053H18.5625V44.972C18.5625 38.6731 21.0318 32.6322 25.4271 28.1782C29.8225 23.7242 35.7839 21.222 42 21.222H10.75V60.8053ZM75.8541 63.4442H8.14579C7.45512 63.4442 6.79274 63.7222 6.30437 64.2171C5.81599 64.712 5.54163 65.3832 5.54163 66.0831V76.6387C5.54163 77.3385 5.81599 78.0098 6.30437 78.5046C6.79274 78.9995 7.45512 79.2775 8.14579 79.2775H75.8541C76.5448 79.2775 77.2072 78.9995 77.6955 78.5046C78.1839 78.0098 78.4583 77.3385 78.4583 76.6387V66.0831C78.4583 65.3832 78.1839 64.712 77.6955 64.2171C77.2072 63.7222 76.5448 63.4442 75.8541 63.4442Z" fill="url(#paint0_linear_1_1068)"/>
</g>
<defs>
<linearGradient id="paint0_linear_1_1068" x1="42" y1="5.38867" x2="42" y2="79.2775" gradientUnits="userSpaceOnUse">
<stop stop-color="#FF002E"/>
<stop offset="1" stop-color="#FF3E3E"/>
</linearGradient>
<clipPath id="clip0_1_1068">
<rect x="0.333313" y="0.111084" width="83.3333" height="105.556" rx="40" fill="white"/>
</clipPath>
</defs>
</svg>
