<svg width="92" height="118" viewBox="0 0 92 118" fill="none" xmlns="http://www.w3.org/2000/svg">
<g clip-path="url(#clip0_1_996)">
<path d="M71.2571 10.1045L40.2738 2.82452C39.3571 2.63785 38.4405 2.82452 37.7071 3.38452C36.9738 3.94452 36.6071 4.87785 36.6071 5.81118V10.0112H21.1155C19.4655 10.0112 18.0905 11.4112 18.0905 13.0912V81.1312C18.0905 82.8112 19.4655 84.2112 21.1155 84.2112H36.5155V88.4112C36.5155 89.3445 36.9738 90.1845 37.6155 90.8379C38.1655 91.3045 38.8071 91.4912 39.4488 91.4912C39.6321 91.4912 39.9071 91.4912 40.0905 91.3979L71.0738 84.1179C72.4488 83.8379 73.3655 82.5312 73.3655 81.1312V13.0912C73.5488 11.5979 72.6321 10.3845 71.2571 10.1045ZM36.5155 78.0512H24.1405V16.0779H36.5155V78.0512ZM47.1488 50.3312C45.4071 50.3312 43.9405 48.8379 43.9405 47.0645C43.9405 45.2912 45.4071 43.7979 47.1488 43.7979C48.8905 43.7979 50.3571 45.2912 50.3571 47.0645C50.3571 48.8379 48.8905 50.3312 47.1488 50.3312Z" fill="url(#paint0_linear_1_996)"/>
</g>
<defs>
<linearGradient id="paint0_linear_1_996" x1="45.7396" y1="2.75452" x2="45.7396" y2="91.4912" gradientUnits="userSpaceOnUse">
<stop stop-color="#D36500"/>
<stop offset="1" stop-color="#FF9900"/>
</linearGradient>
<clipPath id="clip0_1_996">
<rect width="91.6667" height="116.667" fill="white" transform="translate(0.0322266 0.397827)"/>
</clipPath>
</defs>
</svg>
