<svg width="78" height="101" viewBox="0 0 78 101" fill="none" xmlns="http://www.w3.org/2000/svg">
<g clip-path="url(#clip0_1_1086)">
<path d="M72.4281 17.7945C71.3614 16.6976 70.0742 15.8541 68.6569 15.3233C67.2396 14.7925 65.7264 14.5873 64.2238 14.722C64.3734 12.9404 64.084 11.1487 63.3823 9.51252C62.6805 7.87639 61.5891 6.44861 60.2088 5.36117C58.8286 4.27374 57.2042 3.56173 55.4856 3.29098C53.767 3.02022 52.0098 3.19945 50.3764 3.8121C48.743 4.42474 47.2862 5.45104 46.1404 6.79611C44.9947 8.14119 44.1972 9.76164 43.8215 11.5077C43.4458 13.2537 43.5042 15.069 43.9911 16.7857C44.478 18.5024 45.3778 20.0652 46.6074 21.3295C46.656 21.3795 46.7046 21.4295 46.7556 21.4795L20.3445 48.6418C20.2959 48.5905 20.2473 48.5418 20.1987 48.4905C18.9696 47.2248 17.4501 46.2982 15.7807 45.7966C14.1113 45.2949 12.3458 45.2343 10.6476 45.6204C8.94936 46.0065 7.37319 46.8268 6.06485 48.0054C4.75651 49.1841 3.75823 50.683 3.16233 52.3636C2.56644 54.0443 2.39216 55.8523 2.65563 57.6206C2.91909 59.3888 3.61179 61.0602 4.66966 62.4802C5.72753 63.9001 7.11641 65.0228 8.70788 65.7443C10.2993 66.4659 12.042 66.763 13.7747 66.6083C13.6249 68.3899 13.9142 70.1816 14.6158 71.8177C15.3174 73.4539 16.4086 74.8818 17.7887 75.9694C19.1688 77.0569 20.7932 77.7691 22.5117 78.04C24.2302 78.311 25.9874 78.132 27.6209 77.5195C29.2543 76.9071 30.7113 75.881 31.8571 74.536C33.003 73.1911 33.8007 71.5708 34.1766 69.8249C34.5525 68.0789 34.4944 66.2636 34.0077 64.5469C33.521 62.8301 32.6214 61.2673 31.3921 60.0028C31.3435 59.9515 31.2949 59.9028 31.2463 59.8528L57.655 32.6883C57.7036 32.7395 57.7522 32.7908 57.8008 32.8408C59.7406 34.836 62.3716 35.9569 65.1149 35.9569C66.4733 35.9569 67.8184 35.6817 69.0733 35.1471C70.3283 34.6124 71.4686 33.8287 72.4291 32.8408C73.3896 31.8528 74.1515 30.6799 74.6713 29.3891C75.1912 28.0983 75.4587 26.7148 75.4587 25.3176C75.4587 23.9205 75.1912 22.537 74.6713 21.2461C74.1515 19.9553 73.3896 18.7825 72.4291 17.7945H72.4281Z" fill="url(#paint0_linear_1_1086)"/>
</g>
<defs>
<linearGradient id="paint0_linear_1_1086" x1="38.9975" y1="3.16833" x2="38.9975" y2="78.1628" gradientUnits="userSpaceOnUse">
<stop stop-color="#FFA800"/>
<stop offset="1" stop-color="#B77900"/>
</linearGradient>
<clipPath id="clip0_1_1086">
<rect x="0.111084" y="0.666626" width="77.7778" height="100" rx="38.8889" fill="white"/>
</clipPath>
</defs>
</svg>
