<svg width="106" height="134" viewBox="0 0 106 134" fill="none" xmlns="http://www.w3.org/2000/svg">
<g clip-path="url(#clip0_1_1051)">
<path d="M40.2673 90.6663H65.7326C64.9729 93.4909 63.3147 95.9844 61.0136 97.7621C58.7125 99.5398 55.8964 100.503 52.9999 100.503C50.1034 100.503 47.2874 99.5398 44.9863 97.7621C42.6852 95.9844 41.0269 93.4909 40.2673 90.6663ZM82.3905 82.633L69.493 53.2997V37.333C69.493 36.449 69.1455 35.6011 68.5268 34.976C67.9082 34.3509 67.0692 33.9997 66.1944 33.9997H56.2985V10.6663C56.2985 9.78229 55.951 8.93444 55.3324 8.30932C54.7138 7.6842 53.8748 7.33301 52.9999 7.33301C52.1251 7.33301 51.2861 7.6842 50.6675 8.30932C50.0488 8.93444 49.7013 9.78229 49.7013 10.6663V33.9997H39.8055C38.9306 33.9997 38.0916 34.3509 37.473 34.976C36.8544 35.6011 36.5069 36.449 36.5069 37.333V53.2997L23.6093 82.633C23.3837 83.1401 23.2873 83.6962 23.3287 84.2506C23.3701 84.805 23.548 85.3401 23.8464 85.8072C24.1447 86.2744 24.554 86.6587 25.0368 86.9252C25.5197 87.1916 26.0609 87.3319 26.611 87.333H79.3888C79.939 87.3319 80.4801 87.1916 80.963 86.9252C81.4459 86.6587 81.8551 86.2744 82.1535 85.8072C82.4518 85.3401 82.6298 84.805 82.6712 84.2506C82.7126 83.6962 82.6161 83.1401 82.3905 82.633Z" fill="url(#paint0_linear_1_1051)"/>
</g>
<defs>
<linearGradient id="paint0_linear_1_1051" x1="52.9999" y1="7.33301" x2="52.9999" y2="100.503" gradientUnits="userSpaceOnUse">
<stop stop-color="#FFB800"/>
<stop offset="1" stop-color="#E3DE67"/>
</linearGradient>
<clipPath id="clip0_1_1051">
<rect x="0.222229" y="0.666626" width="105.556" height="133.333" rx="40" fill="white"/>
</clipPath>
</defs>
</svg>
