<svg width="84" height="84" viewBox="0 0 84 84" fill="none" xmlns="http://www.w3.org/2000/svg">
<g clip-path="url(#clip0_1_1038)">
<path d="M73.2501 10.7502V17.6946C73.2501 31.1182 62.3682 42.0002 48.9445 42.0002H45.4723V45.4724H62.8334V69.778C62.8334 73.6148 59.7258 76.7224 55.889 76.7224H28.1112C24.2744 76.7224 21.1668 73.6148 21.1668 69.778V45.4724H38.5279V35.0557C38.5279 21.6321 49.4098 10.7502 62.8334 10.7502H73.2501ZM19.4307 7.27795C28.2119 7.27795 35.9758 11.6217 40.6945 18.2814C37.1529 22.9377 35.0557 28.7536 35.0557 35.0557V38.528H33.3195C18.9376 38.528 7.27788 26.8682 7.27788 12.4863V7.27795H19.4307Z" fill="url(#paint0_linear_1_1038)"/>
</g>
<defs>
<linearGradient id="paint0_linear_1_1038" x1="40.264" y1="7.27795" x2="40.264" y2="76.7224" gradientUnits="userSpaceOnUse">
<stop stop-color="#1CC91D"/>
<stop offset="1" stop-color="#6CA425"/>
</linearGradient>
<clipPath id="clip0_1_1038">
<rect x="0.333435" y="0.333496" width="83.3333" height="83.3333" rx="40" fill="white"/>
</clipPath>
</defs>
</svg>
